{
  "source": "C:\\Users\\Peter\\Desktop\\stuff\\MIUN\\quantitative_research\\video_compression\\videos\\BVI-HD\\DiverFishAndRock_1920x1080_30fps.mp4",
  "output": "C:\\Users\\Peter\\Desktop\\stuff\\MIUN\\quantitative_research\\video_compression\\compressed_videos\\BVI-HD\\h264\\12\\DiverFishAndRock_1920x1080_30fps_h264.mp4",
  "codec": "h264",
  "ok": "Input #0, mov,mp4,m4a,3gp,3g2,mj2, from 'C:\\Users\\Peter\\Desktop\\stuff\\MIUN\\quantitative_research\\video_compression\\videos\\BVI-HD\\DiverFishAndRock_1920x1080_30fps.mp4':\n  Metadata:\n    major_brand     : isom\n    minor_version   : 512\n    compatible_brands: isomiso2avc1mp41\n    encoder         : Lavf54.28.101\n  Duration: 00:00:05.00, start: 0.000000, bitrate: 228854 kb/s\n  Stream #0:0[0x1](und): Video: h264 (High 4:4:4 Predictive) (avc1 / 0x31637661), yuv420p(progressive), 1920x1080, 228851 kb/s, 30 fps, 30 tbr, 30 tbn (default)\n    Metadata:\n      handler_name    : VideoHandler\n      vendor_id       : [0][0][0][0]\n[out#0/mp4 @ 00000227267015c0] Codec AVOption b:a (set bitrate (in bits/s)) has not been used for any stream. The most likely reason is either wrong type (e.g. a video option with no video streams) or that it is a private option of some decoder which was not actually used for any stream.\nStream mapping:\n  Stream #0:0 -> #0:0 (h264 (native) -> h264 (libx264))\nPress [q] to stop, [?] for help\n[libx264 @ 0000022726f9bb00] using cpu capabilities: MMX2 SSE2Fast SSSE3 SSE4.2 AVX FMA3 BMI2 AVX2\n[libx264 @ 0000022726f9bb00] profile High, level 5.0, 4:2:0, 8-bit\n[libx264 @ 0000022726f9bb00] 264 - core 165 r3222 b35605a - H.264/MPEG-4 AVC codec - Copyleft 2003-2025 - http://www.videolan.org/x264.html - options: cabac=1 ref=5 deblock=1:0:0 analyse=0x3:0x113 me=hex subme=8 psy=1 psy_rd=1.00:0.00 mixed_ref=1 me_range=16 chroma_me=1 trellis=2 8x8dct=1 cqm=0 deadzone=21,11 fast_pskip=1 chroma_qp_offset=-2 threads=18 lookahead_threads=3 sliced_threads=0 nr=0 decimate=1 interlaced=0 bluray_compat=0 constrained_intra=0 bframes=3 b_pyramid=2 b_adapt=1 b_bias=0 direct=3 weightb=1 open_gop=0 weightp=2 keyint=250 keyint_min=25 scenecut=40 intra_refresh=0 rc_lookahead=50 rc=cbr mbtree=1 bitrate=12000 ratetol=1.0 qcomp=0.60 qpmin=0 qpmax=69 qpstep=4 vbv_maxrate=12000 vbv_bufsize=12000 nal_hrd=none filler=0 ip_ratio=1.40 aq=1:1.00\nOutput #0, mp4, to 'C:\\Users\\Peter\\Desktop\\stuff\\MIUN\\quantitative_research\\video_compression\\compressed_videos\\BVI-HD\\h264\\12\\DiverFishAndRock_1920x1080_30fps_h264.mp4':\n  Metadata:\n    major_brand     : isom\n    minor_version   : 512\n    compatible_brands: isomiso2avc1mp41\n    encoder         : Lavf62.3.100\n  Stream #0:0(und): Video: h264 (avc1 / 0x31637661), yuv420p(tv, progressive), 1920x1080, q=2-31, 12000 kb/s, 30 fps, 15360 tbn (default)\n    Metadata:\n      encoder         : Lavc62.11.100 libx264\n      handler_name    : VideoHandler\n      vendor_id       : [0][0][0][0]\n    Side data:\n      cpb: bitrate max/min/avg: 12000000/0/12000000 buffer size: 12000000 vbv_delay: N/A\nframe=    0 fps=0.0 q=0.0 size=       0KiB time=N/A bitrate=N/A speed=N/A elapsed=0:00:01.20    \nframe=    0 fps=0.0 q=0.0 size=       0KiB time=N/A bitrate=N/A speed=N/A elapsed=0:00:01.84    \nframe=    0 fps=0.0 q=0.0 size=       0KiB time=N/A bitrate=N/A speed=N/A elapsed=0:00:02.36    \nframe=    0 fps=0.0 q=0.0 size=       0KiB time=N/A bitrate=N/A speed=N/A elapsed=0:00:02.89    \nframe=    0 fps=0.0 q=0.0 size=       0KiB time=N/A bitrate=N/A speed=N/A elapsed=0:00:03.46    \nframe=    1 fps=0.2 q=26.0 size=       0KiB time=-00:00:00.03 bitrate=N/A speed=N/A elapsed=0:00:04.02    \nframe=    9 fps=2.0 q=24.0 size=     256KiB time=00:00:00.23 bitrate=8989.5kbits/s speed=0.0516x elapsed=0:00:04.52    \nframe=   13 fps=2.6 q=24.0 size=     512KiB time=00:00:00.36 bitrate=11440.0kbits/s speed=0.0725x elapsed=0:00:05.05    \nframe=   21 fps=3.7 q=24.0 size=     768KiB time=00:00:00.60 bitrate=10486.4kbits/s speed=0.106x elapsed=0:00:05.67    \nframe=   21 fps=3.4 q=24.0 size=     768KiB time=00:00:00.63 bitrate=9934.5kbits/s speed=0.101x elapsed=0:00:06.26    \nframe=   25 fps=3.6 q=23.0 size=    1024KiB time=00:00:00.76 bitrate=10942.2kbits/s speed=0.112x elapsed=0:00:06.85    \nframe=   29 fps=3.9 q=24.0 size=    1024KiB time=00:00:00.90 bitrate=9321.1kbits/s speed=0.121x elapsed=0:00:07.44    \nframe=   33 fps=4.1 q=24.0 size=    1280KiB time=00:00:01.03 bitrate=10147.9kbits/s speed=0.129x elapsed=0:00:08.00    \nframe=   37 fps=4.3 q=24.0 size=    1536KiB time=00:00:01.16 bitrate=10785.7kbits/s speed=0.135x elapsed=0:00:08.62    \nframe=   45 fps=4.9 q=24.0 size=    1792KiB time=00:00:01.30 bitrate=11292.7kbits/s speed=0.142x elapsed=0:00:09.17    \nframe=   45 fps=4.5 q=24.0 size=    1792KiB time=00:00:01.43 bitrate=10242.2kbits/s speed=0.144x elapsed=0:00:09.93    \nframe=   45 fps=4.3 q=24.0 size=    1792KiB time=00:00:01.43 bitrate=10242.2kbits/s speed=0.136x elapsed=0:00:10.55    \nframe=   49 fps=4.4 q=24.0 size=    2048KiB time=00:00:01.56 bitrate=10709.1kbits/s speed=0.141x elapsed=0:00:11.12    \nframe=   61 fps=5.2 q=24.0 size=    2560KiB time=00:00:01.96 bitrate=10663.7kbits/s speed=0.168x elapsed=0:00:11.69    \nframe=   65 fps=5.3 q=24.0 size=    2560KiB time=00:00:02.10 bitrate=9986.6kbits/s speed=0.17x elapsed=0:00:12.33    \nframe=   74 fps=5.7 q=24.0 size=    3072KiB time=00:00:02.40 bitrate=10485.9kbits/s speed=0.185x elapsed=0:00:12.95    \nframe=   77 fps=5.7 q=24.0 size=    3328KiB time=00:00:02.50 bitrate=10905.3kbits/s speed=0.185x elapsed=0:00:13.53    \nframe=   83 fps=5.9 q=24.0 size=    3584KiB time=00:00:02.53 bitrate=11589.7kbits/s speed=0.179x elapsed=0:00:14.14    \nframe=   89 fps=6.0 q=24.0 size=    3840KiB time=00:00:02.90 bitrate=10847.5kbits/s speed=0.196x elapsed=0:00:14.76    \nframe=   93 fps=6.0 q=23.0 size=    3840KiB time=00:00:03.03 bitrate=10370.7kbits/s speed=0.197x elapsed=0:00:15.40    \nframe=  105 fps=6.5 q=23.0 size=    4608KiB time=00:00:03.26 bitrate=11555.9kbits/s speed=0.203x elapsed=0:00:16.07    \nframe=  110 fps=6.6 q=23.0 size=    4608KiB time=00:00:03.60 bitrate=10485.9kbits/s speed=0.215x elapsed=0:00:16.78    \nframe=  113 fps=6.5 q=23.0 size=    4864KiB time=00:00:03.70 bitrate=10769.3kbits/s speed=0.212x elapsed=0:00:17.46    \nframe=  113 fps=6.3 q=23.0 size=    4864KiB time=00:00:03.70 bitrate=10769.3kbits/s speed=0.205x elapsed=0:00:18.06    \nframe=  126 fps=6.8 q=21.0 size=    5376KiB time=00:00:03.96 bitrate=11102.7kbits/s speed=0.213x elapsed=0:00:18.65    \nframe=  133 fps=6.9 q=21.0 size=    5888KiB time=00:00:04.26 bitrate=11305.0kbits/s speed=0.221x elapsed=0:00:19.31    \nframe=  143 fps=7.2 q=-1.0 size=    6400KiB time=00:00:04.63 bitrate=11315.7kbits/s speed=0.232x elapsed=0:00:19.94    \n[mp4 @ 00000227267016c0] Starting second pass: moving the moov atom to the beginning of the file\n[out#0/mp4 @ 00000227267015c0] video:6828KiB audio:0KiB subtitle:0KiB other streams:0KiB global headers:0KiB muxing overhead: 0.039401%\nframe=  150 fps=7.3 q=-1.0 Lsize=    6831KiB time=00:00:04.93 bitrate=11343.3kbits/s speed=0.24x elapsed=0:00:20.54    \n[libx264 @ 0000022726f9bb00] frame I:1     Avg QP:18.59  size:159992\n[libx264 @ 0000022726f9bb00] frame P:38    Avg QP:20.05  size: 89177\n[libx264 @ 0000022726f9bb00] frame B:111   Avg QP:22.10  size: 31016\n[libx264 @ 0000022726f9bb00] consecutive B-frames:  1.3%  0.0%  0.0% 98.7%\n[libx264 @ 0000022726f9bb00] mb I  I16..4: 31.8% 55.9% 12.3%\n[libx264 @ 0000022726f9bb00] mb P  I16..4:  0.9% 10.1%  1.4%  P16..4: 51.0% 22.8% 11.6%  0.0%  0.0%    skip: 2.1%\n[libx264 @ 0000022726f9bb00] mb B  I16..4:  0.1%  1.3%  0.3%  B16..8: 55.1% 10.2%  2.1%  direct: 7.0%  skip:23.9%  L0:43.8% L1:45.6% BI:10.6%\n[libx264 @ 0000022726f9bb00] 8x8 transform intra:77.0% inter:66.3%\n[libx264 @ 0000022726f9bb00] direct mvs  spatial:91.0% temporal:9.0%\n[libx264 @ 0000022726f9bb00] coded y,uvDC,uvAC intra: 82.9% 90.1% 58.5% inter: 25.2% 45.7% 2.6%\n[libx264 @ 0000022726f9bb00] i16 v,h,dc,p:  5% 24% 13% 59%\n[libx264 @ 0000022726f9bb00] i8 v,h,dc,ddl,ddr,vr,hd,vl,hu: 10% 10%  6%  8% 15% 12% 15% 10% 14%\n[libx264 @ 0000022726f9bb00] i4 v,h,dc,ddl,ddr,vr,hd,vl,hu:  9% 10%  8%  8% 16% 12% 16%  9% 13%\n[libx264 @ 0000022726f9bb00] i8c dc,h,v,p: 43% 25% 16% 16%\n[libx264 @ 0000022726f9bb00] Weighted P-Frames: Y:13.2% UV:0.0%\n[libx264 @ 0000022726f9bb00] ref P L0: 45.5% 17.0% 20.6%  8.8%  7.5%  0.7%\n[libx264 @ 0000022726f9bb00] ref B L0: 80.2% 13.8%  4.7%  1.4%\n[libx264 @ 0000022726f9bb00] ref B L1: 94.7%  5.3%\n[libx264 @ 0000022726f9bb00] kb/s:11186.42\n",
  "seconds": 21.315201997756958,
  "probe_out": {}
}